<?xml version="1.0" standalone="no"?>
<!DOCTYPE svg PUBLIC "-//W3C//DTD SVG 20010904//EN"
 "http://www.w3.org/TR/2001/REC-SVG-20010904/DTD/svg10.dtd">
<svg version="1.0" xmlns="http://www.w3.org/2000/svg"
 width="400.000000pt" height="400.000000pt" viewBox="0 0 400.000000 400.000000"
 preserveAspectRatio="xMidYMid meet">
<metadata>
Created by potrace 1.11, written by Peter Selinger 2001-2013
</metadata>
<g transform="translate(0.000000,400.000000) scale(0.100000,-0.100000)"
fill="#000000" stroke="none">
<path d="M530 2895 c-253 -56 -399 -261 -386 -540 3 -44 7 -89 9 -100 16 -67
30 -105 52 -144 l25 -43 -39 -47 c-127 -152 -163 -388 -91 -602 59 -173 187
-274 403 -317 27 -6 151 -10 275 -11 218 -1 229 0 267 21 26 15 48 38 61 66
22 42 22 44 22 820 1 727 -1 780 -17 818 -10 22 -34 52 -52 65 -33 23 -39 24
-249 26 -156 1 -233 -2 -280 -12z m238 -334 c10 -1 12 -40 10 -178 l-3 -178
-90 1 c-78 1 -96 4 -128 25 -54 35 -70 77 -65 163 8 117 35 149 143 164 41 6
66 7 133 3z m12 -912 c0 -192 -1 -209 -17 -210 -126 -8 -244 7 -285 35 -45 30
-59 65 -63 156 -7 165 67 226 277 228 l88 0 0 -209z"/>
<path d="M1335 2896 c-41 -18 -83 -69 -90 -109 -3 -18 -5 -384 -3 -814 3 -771
3 -782 24 -809 48 -65 130 -90 210 -64 48 16 71 35 95 81 16 33 18 66 18 394
0 196 2 359 4 361 2 2 14 -22 27 -54 13 -31 33 -79 46 -107 12 -27 53 -120 89
-205 37 -85 75 -168 84 -183 50 -87 205 -101 278 -25 20 22 72 128 154 315
l124 282 5 -384 c5 -368 6 -385 26 -411 36 -49 70 -67 133 -72 52 -4 67 -1
107 23 87 51 83 0 83 885 0 727 -1 778 -18 815 -10 22 -33 51 -52 65 -30 22
-44 25 -116 25 -75 0 -84 -2 -118 -30 -40 -32 -34 -20 -285 -590 -182 -415
-166 -382 -178 -359 -5 11 -49 109 -97 219 -48 110 -95 218 -105 240 -10 22
-60 136 -111 254 -90 207 -94 215 -138 242 -37 24 -56 29 -105 29 -34 -1 -75
-7 -91 -14z"/>
<path d="M2955 2887 c-22 -12 -49 -39 -61 -60 -21 -38 -21 -42 -22 -825 0
-753 0 -788 19 -823 10 -21 33 -48 51 -61 33 -23 37 -23 288 -23 282 0 318 5
436 61 115 54 193 144 241 278 35 99 36 317 1 416 -16 48 -58 123 -88 157 -53
61 -52 56 -24 107 44 80 64 175 59 295 -6 160 -46 263 -139 355 -113 114 -228
146 -521 146 -189 0 -202 -2 -240 -23z m427 -331 c95 -13 133 -72 126 -194 -6
-117 -50 -152 -191 -155 l-92 -2 -3 177 c-2 162 -1 177 15 180 21 4 91 1 145
-6z m98 -723 c81 -36 110 -90 106 -198 -4 -107 -20 -141 -78 -171 -38 -20
-153 -31 -265 -25 l-23 1 0 210 0 210 108 -4 c80 -2 120 -8 152 -23z"/>
</g>
</svg>
